<svg width="65" height="65" viewBox="0 0 65 65" fill="none" xmlns="http://www.w3.org/2000/svg">
<path d="M37.9166 5.41675H16.25C14.8134 5.41675 13.4356 5.98743 12.4198 7.00325C11.404 8.01907 10.8333 9.39683 10.8333 10.8334V54.1668C10.8333 55.6033 11.404 56.9811 12.4198 57.9969C13.4356 59.0127 14.8134 59.5834 16.25 59.5834H48.75C50.1866 59.5834 51.5643 59.0127 52.5801 57.9969C53.596 56.9811 54.1666 55.6033 54.1666 54.1668V21.6667L37.9166 5.41675Z" stroke="black" stroke-linecap="round" stroke-linejoin="round"/>
<path d="M37.9167 5.41675V21.6667H54.1667" stroke="black" stroke-linecap="round" stroke-linejoin="round"/>
<path d="M43.3334 35.2083H21.6667" stroke="black" stroke-linecap="round" stroke-linejoin="round"/>
<path d="M43.3334 46.0417H21.6667" stroke="black" stroke-linecap="round" stroke-linejoin="round"/>
<path d="M27.0834 24.375H24.375H21.6667" stroke="black" stroke-linecap="round" stroke-linejoin="round"/>
</svg>
