<svg width="103" height="26" viewBox="0 0 103 26" fill="none" xmlns="http://www.w3.org/2000/svg">
<path d="M9.868 20.156C12.546 20.156 14.938 19.246 16.55 17.478L15.328 16.256C13.846 17.79 12.026 18.44 9.946 18.44C5.552 18.44 2.25 15.216 2.25 10.9C2.25 6.584 5.552 3.36 9.946 3.36C12.026 3.36 13.846 4.01 15.328 5.518L16.55 4.296C14.938 2.528 12.546 1.644 9.894 1.644C4.408 1.644 0.352 5.57 0.352 10.9C0.352 16.23 4.408 20.156 9.868 20.156ZM21.1975 3.334C21.9775 3.334 22.5495 2.736 22.5495 1.982C22.5495 1.28 21.9515 0.707999 21.1975 0.707999C20.4435 0.707999 19.8455 1.306 19.8455 2.008C19.8455 2.736 20.4435 3.334 21.1975 3.334ZM20.2615 20H22.1075V6.324H20.2615V20ZM33.7959 17.842C33.2759 18.31 32.5219 18.544 31.7679 18.544C30.2339 18.544 29.4019 17.66 29.4019 16.048V7.884H33.5619V6.324H29.4019V3.334H27.5559V6.324H25.1119V7.884H27.5559V16.152C27.5559 18.674 28.9859 20.13 31.5599 20.13C32.6259 20.13 33.7179 19.818 34.4459 19.168L33.7959 17.842ZM47.2245 6.324L42.0765 17.946L36.9285 6.324H35.0045L41.1145 19.974L40.5165 21.3C39.7365 23.016 38.9045 23.588 37.6825 23.588C36.6945 23.588 35.8625 23.224 35.1865 22.548L34.3285 23.926C35.1605 24.758 36.3825 25.174 37.6565 25.174C39.6065 25.174 41.0625 24.316 42.2065 21.638L49.0445 6.324H47.2245Z" fill="black"/>
<path d="M53.4123 9.002V6.324H51.6443V20H53.4903V13.032C53.4903 9.808 55.2323 7.988 58.0923 7.988C58.2223 7.988 58.3783 8.014 58.5343 8.014V6.22C56.0123 6.22 54.2703 7.182 53.4123 9.002ZM73.6838 13.162C73.6838 9.054 70.9018 6.22 67.0538 6.22C63.2058 6.22 60.3718 9.106 60.3718 13.162C60.3718 17.218 63.2838 20.13 67.5478 20.13C69.7058 20.13 71.6038 19.35 72.8258 17.894L71.7858 16.698C70.7458 17.894 69.2638 18.492 67.5998 18.492C64.6098 18.492 62.4258 16.594 62.2178 13.734H73.6578C73.6578 13.526 73.6838 13.318 73.6838 13.162ZM67.0538 7.806C69.7318 7.806 71.6818 9.678 71.9158 12.356H62.2178C62.4518 9.678 64.4018 7.806 67.0538 7.806ZM84.4092 6.22C82.0432 6.22 80.1972 7.182 79.2092 8.846V6.324H77.4412V20H79.2872V12.824C79.2872 9.704 81.1332 7.884 84.0712 7.884C86.6712 7.884 88.1792 9.366 88.1792 12.252V20H90.0252V12.07C90.0252 8.144 87.7372 6.22 84.4092 6.22ZM101.589 17.842C101.069 18.31 100.315 18.544 99.5609 18.544C98.0269 18.544 97.1949 17.66 97.1949 16.048V7.884H101.355V6.324H97.1949V3.334H95.3489V6.324H92.9049V7.884H95.3489V16.152C95.3489 18.674 96.7789 20.13 99.3529 20.13C100.419 20.13 101.511 19.818 102.239 19.168L101.589 17.842Z" fill="#EB8D4D"/>
</svg>
